<?xml version="1.0" standalone="no"?>
<!DOCTYPE svg PUBLIC "-//W3C//DTD SVG 20010904//EN"
 "http://www.w3.org/TR/2001/REC-SVG-20010904/DTD/svg10.dtd">
<svg version="1.0" xmlns="http://www.w3.org/2000/svg"
 width="75.000000pt" height="75.000000pt" viewBox="0 0 236.000000 236.000000"
 preserveAspectRatio="xMidYMid meet">
<metadata>
Created by potrace 1.15, written by Peter Selinger 2001-2017
</metadata>
<g transform="translate(0.000000,236.000000) scale(0.100000,-0.100000)"
fill="#000000" stroke="none">
<path d="M1605 2162 c-37 -23 -130 -157 -210 -302 -80 -146 -115 -186 -178
-205 -28 -8 -72 -15 -97 -15 -82 0 -104 23 -313 321 -60 86 -109 129 -147 129
-43 0 -55 -26 -85 -182 -25 -131 -25 -140 -10 -196 8 -33 15 -99 15 -146 0
-79 2 -89 24 -111 22 -22 23 -29 15 -59 -8 -27 -6 -41 5 -58 8 -13 20 -44 25
-70 11 -49 0 -122 -34 -213 -20 -55 -18 -92 7 -145 11 -25 23 -54 25 -65 2
-11 17 -33 33 -50 16 -16 29 -34 28 -39 -1 -5 9 -20 21 -33 l23 -23 -92 0 -91
0 15 22 c21 30 20 103 -2 140 -10 17 -28 32 -45 35 -16 3 -34 17 -41 32 -32
61 -101 100 -139 79 -12 -7 -30 -11 -39 -10 -26 4 -78 -26 -90 -53 -6 -13 -23
-28 -39 -34 -32 -11 -43 -40 -44 -114 0 -41 4 -53 28 -73 l28 -24 -100 0 c-83
0 -101 -3 -101 -15 0 -13 48 -15 375 -15 360 0 435 -5 420 -31 -3 -4 4 -10 15
-14 11 -3 20 -11 20 -16 0 -5 8 -9 18 -9 14 0 15 -2 3 -9 -12 -8 -9 -11 13
-17 18 -4 24 -9 16 -14 -9 -5 -6 -10 9 -15 13 -4 20 -9 17 -12 -2 -3 8 -23 24
-44 15 -22 41 -74 56 -116 23 -62 29 -73 34 -54 5 21 8 18 30 -28 27 -59 58
-93 46 -51 l-7 25 25 -27 25 -28 3 28 3 27 19 -35 19 -35 13 30 13 30 1 -32
c0 -38 10 -42 29 -12 10 17 15 19 21 8 7 -11 14 -9 34 11 15 13 26 29 26 37 0
19 18 16 22 -4 3 -14 7 -12 21 12 13 25 16 26 17 10 1 -36 20 9 23 54 2 36 5
40 25 36 19 -3 22 1 22 26 0 27 3 29 37 29 35 0 36 0 18 20 -12 13 -14 20 -5
20 6 0 10 6 7 14 -4 10 0 12 15 8 18 -4 19 -2 10 13 -7 14 -6 22 3 32 10 9 11
22 5 43 -6 21 -5 28 2 24 7 -5 9 2 4 21 -7 26 -6 27 10 14 16 -12 17 -12 11 3
-4 13 -2 15 10 11 11 -4 14 -2 9 5 -5 9 88 12 383 12 341 0 391 2 391 15 0 12
-15 15 -77 15 l-78 0 3 58 c3 53 1 60 -27 90 -17 17 -31 38 -31 45 0 22 -44
57 -72 57 -14 0 -28 7 -32 15 -13 36 -115 10 -153 -39 -12 -15 -29 -23 -47
-23 -56 0 -116 -84 -116 -163 l0 -40 -71 0 c-76 0 -75 -2 -31 58 13 17 21 32
17 32 -4 0 -2 7 5 15 9 11 9 15 1 15 -6 0 -1 17 12 38 29 45 41 75 27 67 -13
-8 -13 -3 1 32 22 58 27 118 17 212 -10 91 -9 99 15 162 17 44 22 70 15 77 -6
6 -4 23 7 48 39 89 45 121 31 167 -9 32 -10 58 -3 103 9 52 6 80 -22 219 -17
88 -39 176 -49 195 -20 42 -53 49 -97 22z m39 -204 c-5 -8 -2 -9 9 -5 16 6 16
4 2 -23 -14 -27 -14 -29 2 -23 16 6 16 4 -2 -16 l-19 -22 27 10 c27 10 27 10
27 -32 0 -23 -10 -62 -22 -87 -12 -25 -22 -49 -23 -55 0 -5 -4 -16 -9 -23 -7
-11 -4 -12 13 -3 18 10 20 9 14 -6 -4 -10 -13 -28 -21 -40 -15 -24 -4 -31 16
-11 6 6 14 9 17 6 3 -3 -14 -26 -36 -52 l-42 -48 39 17 39 16 -30 -31 c-29
-30 -21 -39 16 -20 30 16 23 -3 -8 -22 l-28 -17 30 -1 30 -1 -25 -14 c-31 -18
-71 -19 -105 -3 -24 11 -25 13 -8 19 16 7 15 9 -6 15 -23 7 -23 8 -6 14 18 6
17 9 -10 23 -17 9 -24 16 -16 17 7 0 0 13 -18 29 -26 25 -30 34 -25 62 6 33 6
33 -10 14 -17 -19 -17 -19 -11 9 3 17 16 44 27 60 l21 31 -31 -29 c-18 -17
-32 -25 -32 -20 0 16 60 70 110 99 26 15 34 23 20 19 -43 -11 -84 -35 -117
-67 -18 -17 -33 -27 -33 -22 0 20 54 77 97 102 26 15 41 29 34 31 -7 2 -2 13
14 28 16 15 21 24 12 24 -7 0 5 19 27 43 30 32 43 40 49 30 4 -7 5 -18 1 -25z
m-918 -93 c-18 -14 -17 -15 25 -16 40 -1 42 -2 14 -9 -16 -4 -24 -8 -17 -9 36
-3 86 -38 114 -80 l31 -46 -39 37 c-21 20 -52 41 -69 47 -25 9 -27 8 -11 -2
36 -22 96 -79 96 -90 0 -6 -10 -1 -23 11 -13 12 -27 22 -32 22 -5 0 1 -7 13
-16 35 -24 26 -36 -10 -14 -45 27 -59 25 -18 -2 18 -13 40 -34 49 -47 15 -23
15 -24 -6 -13 -30 17 -41 15 -17 -3 17 -13 16 -14 -21 -9 l-40 5 35 -17 35
-17 -35 -7 -35 -6 40 -8 c34 -7 37 -10 20 -16 -13 -6 -15 -9 -5 -10 12 0 11
-3 -2 -11 -10 -5 -18 -14 -18 -19 0 -6 8 -10 18 -10 9 -1 -3 -12 -28 -25 -29
-16 -38 -24 -26 -25 16 0 14 -4 -13 -24 -18 -14 -27 -26 -20 -28 7 -2 -5 -14
-26 -27 -47 -27 -80 -21 -45 9 15 13 18 20 9 20 -11 0 -11 2 1 10 8 5 11 10 5
10 -5 0 -3 5 5 10 12 8 10 10 -10 11 -14 0 -19 3 -12 6 19 7 14 20 -10 27 -22
7 -22 8 -3 15 19 8 19 8 0 19 -19 11 -19 11 5 12 23 1 23 2 5 10 -11 5 -14 9
-7 9 7 1 10 6 7 11 -3 6 0 10 7 10 8 0 6 5 -4 11 -10 5 -18 14 -18 19 0 5 8 7
18 3 15 -6 15 -4 -2 15 -21 24 -16 28 17 10 18 -9 18 -7 -6 22 -28 32 -30 53
-4 31 8 -6 22 -8 31 -5 15 6 13 12 -16 43 -19 20 -41 45 -49 55 -13 18 -12 19
4 13 45 -18 51 -18 28 -1 -23 17 -23 18 -5 25 17 6 16 8 -8 14 -32 8 -32 9
-18 36 9 15 21 19 63 19 48 -1 50 -2 33 -15z m350 -289 c10 -29 -6 -147 -19
-145 -26 3 -38 -2 -31 -13 5 -8 2 -9 -9 -5 -10 3 -17 3 -17 -2 0 -20 -46 -1
-69 29 l-26 34 23 -6 c20 -6 21 -4 10 9 -11 13 -11 17 0 21 10 3 5 11 -15 24
-28 20 -28 20 -3 14 24 -5 24 -5 5 11 -19 15 -19 15 7 9 35 -8 58 2 51 21 -5
13 -1 12 23 -3 31 -21 28 -8 -10 35 l-21 24 29 -19 29 -19 -19 30 -19 30 38
-30 c20 -17 40 -38 43 -49z m174 25 c0 -18 3 -22 9 -13 6 10 12 5 21 -18 18
-43 55 -67 75 -50 13 11 14 10 9 -6 -4 -10 -4 -16 0 -12 10 8 36 -14 29 -24
-2 -5 6 -8 19 -9 13 0 17 -3 11 -6 -10 -3 -10 -8 1 -19 8 -8 19 -14 23 -14 5
0 23 -13 39 -29 17 -16 55 -40 85 -54 31 -13 65 -36 77 -51 48 -62 58 -262 15
-321 -14 -21 -18 -36 -13 -46 14 -24 -13 -68 -78 -127 -31 -30 -46 -49 -34
-42 38 19 36 4 -2 -20 -42 -26 -45 -33 -11 -24 37 9 31 -1 -26 -46 -42 -33
-47 -40 -28 -40 22 0 22 0 3 -15 -19 -14 -19 -14 1 -15 19 -1 19 -2 -2 -12
l-22 -11 22 -18 22 -18 -25 5 -25 6 24 -20 25 -20 -27 5 c-27 5 -38 -11 -14
-20 6 -3 3 -6 -8 -7 -19 -1 -19 -2 4 -20 l23 -20 -37 0 c-33 0 -36 -2 -24 -16
12 -15 10 -16 -19 -9 -32 7 -33 6 -26 -20 6 -25 5 -26 -14 -16 -30 16 -32 14
-21 -21 11 -39 5 -47 -13 -19 -20 33 -30 25 -26 -24 4 -50 -4 -47 -23 10 l-14
40 -3 -47 c-2 -27 -7 -48 -11 -48 -4 0 -16 19 -26 43 l-17 42 -12 -45 -12 -45
-8 45 c-7 39 -9 42 -17 23 -12 -32 -16 -29 -12 9 4 30 3 31 -10 15 -14 -16
-15 -16 -13 10 2 40 14 55 34 44 12 -6 39 2 92 28 78 37 120 82 120 126 0 12
14 40 31 61 35 44 69 106 69 126 0 7 -11 -9 -24 -37 -13 -27 -35 -61 -49 -74
-15 -13 -30 -44 -37 -72 -21 -84 -86 -130 -185 -128 -74 1 -75 14 -2 14 64 1
77 4 110 30 42 31 67 72 67 108 0 13 13 36 31 53 17 16 42 50 55 76 13 25 27
48 31 50 15 6 92 173 84 181 -10 10 -57 -11 -59 -26 -3 -48 -21 -82 -30 -58
-3 8 -20 30 -39 50 l-35 36 21 -32 c38 -56 45 -90 27 -118 -9 -14 -14 -30 -10
-36 7 -12 -21 -46 -51 -61 -12 -7 -7 3 14 26 19 20 30 36 24 36 -7 0 -15 -5
-19 -11 -12 -19 -108 -59 -143 -59 -20 0 -39 7 -46 17 -11 14 -8 19 19 32 38
20 66 73 66 128 0 33 -5 46 -27 63 -25 19 -38 21 -115 18 -75 -3 -90 -6 -112
-27 -28 -26 -33 -61 -15 -108 12 -33 57 -83 75 -83 6 0 17 -7 24 -15 23 -27
-1 -37 -56 -24 -53 14 -114 68 -149 132 l-19 36 24 48 c36 70 35 72 -8 26
l-39 -42 -17 36 c-12 26 -20 33 -25 24 -13 -20 -53 37 -45 63 5 16 4 18 -6 9
-18 -16 -5 -56 30 -96 16 -19 39 -55 50 -81 11 -27 43 -73 71 -104 91 -102
100 -151 14 -71 -25 23 -45 39 -45 36 0 -4 21 -32 46 -63 31 -38 40 -55 28
-51 -18 7 -18 6 0 -8 11 -8 16 -15 10 -15 -5 0 0 -8 11 -16 19 -16 19 -16 -5
-9 -68 20 -132 71 -224 177 -36 42 -66 79 -66 82 0 3 8 6 18 6 15 1 15 2 1 13
-9 7 -15 20 -13 29 1 10 -5 22 -14 28 -12 6 -13 9 -4 10 9 0 4 11 -12 31 -14
17 -26 34 -26 39 0 5 -3 16 -7 26 -5 13 -3 16 10 11 14 -5 15 -1 10 23 -9 48
6 97 41 135 46 48 77 47 100 -3 21 -45 71 -102 92 -102 7 0 14 -5 14 -11 0 -7
9 -9 23 -5 12 4 29 8 37 10 16 3 62 75 111 176 26 52 32 78 33 132 1 38 4 68
8 68 4 0 2 15 -3 32 -5 18 -9 58 -9 90 0 57 0 57 33 61 17 2 51 4 75 4 39 0
42 -2 42 -26z m-45 -651 c44 -10 65 -32 65 -68 l0 -24 -34 21 c-19 12 -41 18
-50 15 -21 -8 -32 -52 -19 -73 13 -20 50 -26 69 -11 23 20 17 -7 -8 -30 -37
-34 -66 -22 -84 37 l-12 38 -1 -43 c-1 -47 -17 -60 -50 -42 -31 16 -28 42 4
34 23 -6 25 -4 25 33 0 22 -7 48 -15 59 -13 18 -15 18 -45 2 -22 -12 -30 -14
-30 -4 0 51 89 78 185 56z m100 -302 c-8 -29 -13 -68 -12 -86 2 -41 -20 -55
-114 -72 -57 -10 -71 -9 -97 4 -33 17 -52 59 -52 113 0 49 15 70 53 77 53 10
85 -7 90 -46 l4 -33 1 37 c2 40 6 42 77 51 68 9 64 12 50 -45z"/>
<path d="M1277 1362 c-10 -10 -17 -35 -17 -56 0 -20 -4 -35 -9 -32 -19 12 -18
-20 2 -59 31 -64 119 -184 102 -140 -4 11 -8 27 -9 37 -1 9 -8 24 -15 32 -12
14 -11 16 4 10 13 -5 16 -4 11 4 -4 7 -2 12 6 12 9 0 9 3 -2 10 -12 8 -10 10
10 12 14 1 32 2 40 4 8 1 30 2 48 3 18 1 41 10 53 22 13 13 27 18 37 14 9 -4
34 -9 55 -11 l37 -3 -14 27 c-17 33 -40 54 -83 76 -32 16 -33 16 -33 -4 0 -24
2 -24 -55 0 -51 22 -90 26 -100 10 -3 -5 -11 -10 -17 -10 -6 0 -6 6 2 15 20
25 5 27 -23 4 -30 -23 -31 -22 -17 15 11 31 9 32 -13 8z"/>
</g>
</svg>
